<mxfile host="app.diagrams.net" modified="2021-09-08T09:53:19.364Z" agent="5.0 (Windows NT 10.0; Win64; x64) AppleWebKit/537.36 (KHTML, like Gecko) Chrome/93.0.4577.63 Safari/537.36" etag="FfnZS8tUanCU-mjsi9AS" version="15.0.4" type="github">
  <diagram id="C5RBs43oDa-KdzZeNtuy" name="Page-1">
    <mxGraphModel dx="1422" dy="772" grid="1" gridSize="10" guides="1" tooltips="1" connect="1" arrows="1" fold="1" page="1" pageScale="1" pageWidth="583" pageHeight="827" math="0" shadow="0">
      <root>
        <mxCell id="WIyWlLk6GJQsqaUBKTNV-0" />
        <mxCell id="WIyWlLk6GJQsqaUBKTNV-1" parent="WIyWlLk6GJQsqaUBKTNV-0" />
        <mxCell id="WIyWlLk6GJQsqaUBKTNV-3" value="&lt;span style=&quot;font-size: 11px ; background-color: rgb(255 , 255 , 255)&quot;&gt;组合商品&lt;br&gt;&lt;/span&gt;" style="rounded=1;whiteSpace=wrap;html=1;fontSize=12;glass=0;strokeWidth=1;shadow=0;" parent="WIyWlLk6GJQsqaUBKTNV-1" vertex="1">
          <mxGeometry x="517" y="35" width="120" height="45" as="geometry" />
        </mxCell>
        <mxCell id="XHB5TGA3l9MUtpr5Tyv0-4" value="商品" style="rounded=1;whiteSpace=wrap;html=1;" vertex="1" parent="WIyWlLk6GJQsqaUBKTNV-1">
          <mxGeometry x="277" y="30" width="120" height="50" as="geometry" />
        </mxCell>
        <mxCell id="XHB5TGA3l9MUtpr5Tyv0-18" style="edgeStyle=orthogonalEdgeStyle;rounded=0;orthogonalLoop=1;jettySize=auto;html=1;exitX=0.1;exitY=0.5;exitDx=0;exitDy=0;exitPerimeter=0;" edge="1" parent="WIyWlLk6GJQsqaUBKTNV-1" source="XHB5TGA3l9MUtpr5Tyv0-16">
          <mxGeometry relative="1" as="geometry">
            <mxPoint x="462" y="150" as="targetPoint" />
          </mxGeometry>
        </mxCell>
        <mxCell id="XHB5TGA3l9MUtpr5Tyv0-16" value="" style="shape=curlyBracket;whiteSpace=wrap;html=1;rounded=1;rotation=-90;" vertex="1" parent="WIyWlLk6GJQsqaUBKTNV-1">
          <mxGeometry x="447" y="-25" width="30" height="250" as="geometry" />
        </mxCell>
        <mxCell id="XHB5TGA3l9MUtpr5Tyv0-34" style="edgeStyle=orthogonalEdgeStyle;rounded=0;orthogonalLoop=1;jettySize=auto;html=1;exitX=0.5;exitY=1;exitDx=0;exitDy=0;" edge="1" parent="WIyWlLk6GJQsqaUBKTNV-1" source="XHB5TGA3l9MUtpr5Tyv0-19" target="XHB5TGA3l9MUtpr5Tyv0-38">
          <mxGeometry relative="1" as="geometry">
            <mxPoint x="407" y="360" as="targetPoint" />
            <Array as="points">
              <mxPoint x="237" y="340" />
              <mxPoint x="237" y="340" />
            </Array>
          </mxGeometry>
        </mxCell>
        <mxCell id="XHB5TGA3l9MUtpr5Tyv0-19" value="绑定报价单" style="rounded=1;whiteSpace=wrap;html=1;" vertex="1" parent="WIyWlLk6GJQsqaUBKTNV-1">
          <mxGeometry x="177" y="280" width="120" height="60" as="geometry" />
        </mxCell>
        <mxCell id="XHB5TGA3l9MUtpr5Tyv0-20" value="" style="shape=curlyBracket;whiteSpace=wrap;html=1;rounded=1;rotation=90;" vertex="1" parent="WIyWlLk6GJQsqaUBKTNV-1">
          <mxGeometry x="392.73" y="-5.92" width="135.32" height="436.25" as="geometry" />
        </mxCell>
        <mxCell id="XHB5TGA3l9MUtpr5Tyv0-21" value="绑定报价单和菜谱" style="text;html=1;align=center;verticalAlign=middle;resizable=0;points=[];autosize=1;strokeColor=none;" vertex="1" parent="WIyWlLk6GJQsqaUBKTNV-1">
          <mxGeometry x="467" y="120" width="110" height="20" as="geometry" />
        </mxCell>
        <mxCell id="XHB5TGA3l9MUtpr5Tyv0-22" value="绑定菜谱" style="rounded=1;whiteSpace=wrap;html=1;" vertex="1" parent="WIyWlLk6GJQsqaUBKTNV-1">
          <mxGeometry x="617" y="280" width="120" height="60" as="geometry" />
        </mxCell>
        <mxCell id="XHB5TGA3l9MUtpr5Tyv0-35" style="edgeStyle=orthogonalEdgeStyle;rounded=0;orthogonalLoop=1;jettySize=auto;html=1;exitX=0.5;exitY=1;exitDx=0;exitDy=0;" edge="1" parent="WIyWlLk6GJQsqaUBKTNV-1" source="XHB5TGA3l9MUtpr5Tyv0-22">
          <mxGeometry relative="1" as="geometry">
            <mxPoint x="677" y="510" as="targetPoint" />
            <mxPoint x="527" y="360" as="sourcePoint" />
          </mxGeometry>
        </mxCell>
        <mxCell id="XHB5TGA3l9MUtpr5Tyv0-36" value="按菜谱下单" style="rounded=1;whiteSpace=wrap;html=1;" vertex="1" parent="WIyWlLk6GJQsqaUBKTNV-1">
          <mxGeometry x="617" y="510" width="120" height="60" as="geometry" />
        </mxCell>
        <mxCell id="XHB5TGA3l9MUtpr5Tyv0-38" value="普通创建订单" style="rounded=1;whiteSpace=wrap;html=1;" vertex="1" parent="WIyWlLk6GJQsqaUBKTNV-1">
          <mxGeometry x="177" y="510" width="120" height="60" as="geometry" />
        </mxCell>
        <mxCell id="XHB5TGA3l9MUtpr5Tyv0-41" style="edgeStyle=orthogonalEdgeStyle;rounded=0;orthogonalLoop=1;jettySize=auto;html=1;exitX=0.1;exitY=0.5;exitDx=0;exitDy=0;exitPerimeter=0;" edge="1" parent="WIyWlLk6GJQsqaUBKTNV-1" source="XHB5TGA3l9MUtpr5Tyv0-39">
          <mxGeometry relative="1" as="geometry">
            <mxPoint x="456.7550000000001" y="700" as="targetPoint" />
          </mxGeometry>
        </mxCell>
        <mxCell id="XHB5TGA3l9MUtpr5Tyv0-39" value="" style="shape=curlyBracket;whiteSpace=wrap;html=1;rounded=1;rotation=-90;" vertex="1" parent="WIyWlLk6GJQsqaUBKTNV-1">
          <mxGeometry x="411.88" y="394.88" width="89.75" height="437.5" as="geometry" />
        </mxCell>
        <mxCell id="XHB5TGA3l9MUtpr5Tyv0-42" value="" style="shape=curlyBracket;whiteSpace=wrap;html=1;rounded=1;rotation=90;size=0.5;" vertex="1" parent="WIyWlLk6GJQsqaUBKTNV-1">
          <mxGeometry x="422.5" y="362.5" width="70" height="735" as="geometry" />
        </mxCell>
        <mxCell id="XHB5TGA3l9MUtpr5Tyv0-51" value="" style="shape=partialRectangle;whiteSpace=wrap;html=1;bottom=0;top=0;fillColor=none;" vertex="1" parent="WIyWlLk6GJQsqaUBKTNV-1">
          <mxGeometry x="240" y="730" width="200" height="40" as="geometry" />
        </mxCell>
        <mxCell id="XHB5TGA3l9MUtpr5Tyv0-54" value="采购计划" style="rounded=1;whiteSpace=wrap;html=1;" vertex="1" parent="WIyWlLk6GJQsqaUBKTNV-1">
          <mxGeometry x="30" y="772.38" width="97" height="60" as="geometry" />
        </mxCell>
        <mxCell id="XHB5TGA3l9MUtpr5Tyv0-57" value="生产计划" style="rounded=1;whiteSpace=wrap;html=1;" vertex="1" parent="WIyWlLk6GJQsqaUBKTNV-1">
          <mxGeometry x="192" y="770" width="100" height="60" as="geometry" />
        </mxCell>
        <mxCell id="XHB5TGA3l9MUtpr5Tyv0-58" value="销售出库订单" style="rounded=1;whiteSpace=wrap;html=1;" vertex="1" parent="WIyWlLk6GJQsqaUBKTNV-1">
          <mxGeometry x="390" y="770" width="97" height="60" as="geometry" />
        </mxCell>
        <mxCell id="XHB5TGA3l9MUtpr5Tyv0-59" value="周转物" style="rounded=1;whiteSpace=wrap;html=1;" vertex="1" parent="WIyWlLk6GJQsqaUBKTNV-1">
          <mxGeometry x="583" y="772.38" width="97" height="60" as="geometry" />
        </mxCell>
        <mxCell id="XHB5TGA3l9MUtpr5Tyv0-61" value="采购计划" style="rounded=1;whiteSpace=wrap;html=1;" vertex="1" parent="WIyWlLk6GJQsqaUBKTNV-1">
          <mxGeometry x="778" y="770" width="97" height="60" as="geometry" />
        </mxCell>
        <mxCell id="XHB5TGA3l9MUtpr5Tyv0-63" value="" style="endArrow=none;html=1;" edge="1" parent="WIyWlLk6GJQsqaUBKTNV-1">
          <mxGeometry width="50" height="50" relative="1" as="geometry">
            <mxPoint x="640" y="730" as="sourcePoint" />
            <mxPoint x="640" y="770" as="targetPoint" />
          </mxGeometry>
        </mxCell>
      </root>
    </mxGraphModel>
  </diagram>
</mxfile>
